<svg version="1.1" id="Layer_1" xmlns="http://www.w3.org/2000/svg" xmlns:xlink="http://www.w3.org/1999/xlink" x="0px" y="0px"
	 width="100%" viewBox="0 0 195 195" enable-background="new 0 0 195 195" xml:space="preserve">
<path fill="#FEFEFE" opacity="1.000000" stroke="none" 
	d="
M1.000000,161.000000 
	C1.000000,107.710312 1.000000,54.420620 1.000000,1.065465 
	C65.903114,1.065465 130.806305,1.065465 196.000000,1.065465 
	C196.000000,60.687248 196.000000,120.374962 195.665436,180.348343 
	C193.937836,175.000778 192.282761,169.414856 191.253815,163.715897 
	C190.671921,160.493011 189.179626,159.703400 186.257599,159.793030 
	C180.281250,159.976318 174.298111,159.932968 168.318497,160.027725 
	C167.932770,160.033829 167.553116,160.421906 166.673019,160.906006 
	C168.004105,161.827515 169.073563,162.567902 170.172806,163.328888 
	C165.653442,170.190186 161.398926,176.649399 156.811462,183.614090 
	C161.105972,183.670166 164.846985,184.960739 166.967194,180.476593 
	C167.319031,179.732483 168.861740,179.197281 169.867493,179.175201 
	C175.490784,179.051880 181.118179,179.115891 186.648254,179.115891 
	C187.336731,180.802887 187.890747,182.160431 188.463898,183.564804 
	C191.060577,183.714752 193.530289,183.857376 196.000000,184.000000 
	C196.000000,187.991745 196.000000,191.983475 196.000000,195.969742 
	C130.999985,195.964264 65.999985,195.964264 1.000000,195.964264 
	C1.000000,191.936798 1.000000,187.945053 1.415029,183.512039 
	C10.275805,183.208099 18.722353,183.445190 27.166460,183.377548 
	C28.465866,183.367142 30.529600,182.222580 30.902937,181.141037 
	C32.052937,177.809525 32.554913,174.254303 33.445141,170.158005 
	C25.407167,169.571838 18.338072,169.056320 9.553669,168.415710 
	C11.509751,166.571716 12.524238,164.782669 13.607183,164.740234 
	C18.033888,164.566742 22.486673,164.844254 26.919403,165.122284 
	C29.421234,165.279221 31.902729,165.760391 34.711571,166.138306 
	C34.711571,163.810928 34.711571,162.363541 34.711571,159.464798 
	C23.390709,159.980331 12.195354,160.490173 1.000000,161.000000 
M66.836868,28.736164 
	C63.487137,32.250923 62.955521,35.999481 66.225822,40.673008 
	C69.619087,44.278526 73.476532,45.335251 78.627113,42.608650 
	C83.966331,37.432053 84.088951,32.842361 78.549721,27.369724 
	C74.630852,25.181314 70.887024,25.135040 66.836868,28.736164 
M75.033340,58.533325 
	C55.318478,78.101173 35.603611,97.669022 15.888742,117.236870 
	C16.184053,117.644722 16.479362,118.052574 16.774673,118.460426 
	C43.110909,103.235016 69.447144,88.009613 95.574654,72.904884 
	C106.507629,83.761955 117.093491,94.140900 127.515244,104.682091 
	C132.453705,109.677147 133.425766,115.745438 130.849854,122.215782 
	C128.398941,128.372116 122.407715,131.985596 115.349220,131.932388 
	C114.042152,131.922531 112.734947,131.930984 110.157303,131.930984 
	C112.454933,133.376099 113.416733,134.006332 114.402176,134.597107 
	C133.718536,146.177551 158.518768,142.223923 172.855637,125.282951 
	C187.519882,107.955139 188.166489,82.405121 172.685593,65.812225 
	C155.884995,47.804848 137.721786,31.068785 120.041039,13.668408 
	C105.469765,28.192869 90.501495,43.113041 75.033340,58.533325 
M113.378342,183.762039 
	C114.364517,183.147263 116.051048,182.687714 116.227089,181.893387 
	C117.761246,174.971222 119.024887,167.989105 120.504036,160.324554 
	C106.044739,160.324554 92.397774,160.324554 78.865433,160.324554 
	C83.219299,168.639557 75.982002,175.679367 77.279602,183.327255 
	C81.593704,184.777496 83.959503,183.594040 84.648857,178.729004 
	C85.295349,174.166519 86.672073,169.707520 87.721230,165.229584 
	C90.858009,165.229584 93.558281,165.229584 96.521149,165.229584 
	C95.618927,169.961746 94.793243,174.292465 93.930824,178.815887 
	C96.451622,178.815887 98.550972,178.815887 100.712471,178.815887 
	C101.765862,174.110428 102.772896,169.612061 103.738922,165.296860 
	C106.822052,165.296860 109.519386,165.296860 112.544502,165.296860 
	C111.416115,171.614960 110.375954,177.439072 109.286400,183.539749 
	C110.620216,183.630524 111.593437,183.696747 113.378342,183.762039 
M127.167259,165.577301 
	C126.003822,171.419159 124.840385,177.261017 123.617325,183.402267 
	C127.691086,183.645203 131.880096,185.595108 132.391388,179.210724 
	C132.459213,178.363617 134.646332,177.111313 135.912582,177.033585 
	C141.726532,176.676636 147.569107,176.791763 153.384567,176.450302 
	C154.789276,176.367813 157.034134,175.471664 157.344131,174.470306 
	C158.727356,170.002106 159.549561,165.360229 160.735870,160.059845 
	C147.895599,160.059845 136.344742,160.059845 124.848122,160.059845 
	C125.759003,161.772736 126.551750,163.263489 127.167259,165.577301 
M41.557480,172.999954 
	C39.346455,176.403595 37.135426,179.807251 34.745079,183.486923 
	C39.161530,183.958786 42.815102,184.558670 44.915306,180.230682 
	C45.251747,179.537384 46.868584,179.178207 47.902813,179.158737 
	C53.379726,179.055557 58.859612,179.110260 64.221733,179.110260 
	C66.512550,184.491425 66.840836,184.625000 73.626923,182.951340 
	C71.743713,175.294830 69.861122,167.640839 68.015579,160.137466 
	C60.036854,160.137466 52.665459,160.137466 44.629467,160.137466 
	C45.959225,161.703583 46.818020,162.715012 47.672249,163.721069 
	C45.611469,166.846527 43.783390,169.619049 41.557480,172.999954 
z"/>
<path fill="#313879" opacity="1.000000" stroke="none" 
	d="
M1.000000,161.250000 
	C12.195354,160.490173 23.390709,159.980331 34.711571,159.464798 
	C34.711571,162.363541 34.711571,163.810928 34.711571,166.138306 
	C31.902729,165.760391 29.421234,165.279221 26.919403,165.122284 
	C22.486673,164.844254 18.033888,164.566742 13.607183,164.740234 
	C12.524238,164.782669 11.509751,166.571716 9.553669,168.415710 
	C18.338072,169.056320 25.407167,169.571838 33.445141,170.158005 
	C32.554913,174.254303 32.052937,177.809525 30.902937,181.141037 
	C30.529600,182.222580 28.465866,183.367142 27.166460,183.377548 
	C18.722353,183.445190 10.275805,183.208099 1.415029,183.035370 
	C1.000000,181.611115 1.000000,180.222214 1.450086,178.374832 
	C8.453775,178.320435 15.006356,178.742233 21.561430,179.120895 
	C24.684664,179.301300 25.729845,177.794540 24.896233,174.638062 
	C17.720457,174.054489 10.546874,173.471085 3.878350,172.928772 
	C2.126647,168.853165 7.323047,164.028839 1.000000,162.000000 
	C1.000000,162.000000 1.000000,161.500000 1.000000,161.250000 
z"/>
<path fill="#2E3576" opacity="1.000000" stroke="none" 
	d="
M196.000000,183.625000 
	C193.530289,183.857376 191.060577,183.714752 188.463898,183.564804 
	C187.890747,182.160431 187.336731,180.802887 186.648254,179.115891 
	C181.118179,179.115891 175.490784,179.051880 169.867493,179.175201 
	C168.861740,179.197281 167.319031,179.732483 166.967194,180.476593 
	C164.846985,184.960739 161.105972,183.670166 156.811462,183.614090 
	C161.398926,176.649399 165.653442,170.190186 170.172806,163.328888 
	C169.073563,162.567902 168.004105,161.827515 166.673019,160.906006 
	C167.553116,160.421906 167.932770,160.033829 168.318497,160.027725 
	C174.298111,159.932968 180.281250,159.976318 186.257599,159.793030 
	C189.179626,159.703400 190.671921,160.493011 191.253815,163.715897 
	C192.282761,169.414856 193.937836,175.000778 195.665436,180.817001 
	C196.000000,181.750000 196.000000,182.500000 196.000000,183.625000 
M181.302048,165.247238 
	C174.970917,164.401443 174.389755,169.776779 171.601562,173.727051 
	C176.544907,173.727051 180.765869,173.727051 186.283157,173.727051 
	C184.691559,170.513290 183.403244,167.911911 181.302048,165.247238 
z"/>
<path fill="#F6F7F9" opacity="1.000000" stroke="none" 
	d="
M1.000000,162.466858 
	C7.323047,164.028839 2.126647,168.853165 3.878350,172.928772 
	C10.546874,173.471085 17.720457,174.054489 24.896233,174.638062 
	C25.729845,177.794540 24.684664,179.301300 21.561430,179.120895 
	C15.006356,178.742233 8.453775,178.320435 1.450086,177.958160 
	C1.000000,172.977905 1.000000,167.955811 1.000000,162.466858 
z"/>
<path fill="#282F73" opacity="1.000000" stroke="none" 
	d="
M75.283279,58.283272 
	C90.501495,43.113041 105.469765,28.192869 120.041039,13.668408 
	C137.721786,31.068785 155.884995,47.804848 172.685593,65.812225 
	C188.166489,82.405121 187.519882,107.955139 172.855637,125.282951 
	C158.518768,142.223923 133.718536,146.177551 114.402176,134.597107 
	C113.416733,134.006332 112.454933,133.376099 110.157303,131.930984 
	C112.734947,131.930984 114.042152,131.922531 115.349220,131.932388 
	C122.407715,131.985596 128.398941,128.372116 130.849854,122.215782 
	C133.425766,115.745438 132.453705,109.677147 127.515244,104.682091 
	C117.093491,94.140900 106.507629,83.761955 95.574654,72.904884 
	C69.447144,88.009613 43.110909,103.235016 16.774673,118.460426 
	C16.479362,118.052574 16.184053,117.644722 15.888742,117.236870 
	C35.603611,97.669022 55.318478,78.101173 75.283279,58.283272 
z"/>
<path fill="#303778" opacity="1.000000" stroke="none" 
	d="
M112.972504,183.762512 
	C111.593437,183.696747 110.620216,183.630524 109.286400,183.539749 
	C110.375954,177.439072 111.416115,171.614960 112.544502,165.296860 
	C109.519386,165.296860 106.822052,165.296860 103.738922,165.296860 
	C102.772896,169.612061 101.765862,174.110428 100.712471,178.815887 
	C98.550972,178.815887 96.451622,178.815887 93.930824,178.815887 
	C94.793243,174.292465 95.618927,169.961746 96.521149,165.229584 
	C93.558281,165.229584 90.858009,165.229584 87.721230,165.229584 
	C86.672073,169.707520 85.295349,174.166519 84.648857,178.729004 
	C83.959503,183.594040 81.593704,184.777496 77.279602,183.327255 
	C75.982002,175.679367 83.219299,168.639557 78.865433,160.324554 
	C92.397774,160.324554 106.044739,160.324554 120.504036,160.324554 
	C119.024887,167.989105 117.761246,174.971222 116.227089,181.893387 
	C116.051048,182.687714 114.364517,183.147263 112.972504,183.762512 
z"/>
<path fill="#2E3476" opacity="1.000000" stroke="none" 
	d="
M127.255875,165.165771 
	C126.551750,163.263489 125.759003,161.772736 124.848122,160.059845 
	C136.344742,160.059845 147.895599,160.059845 160.735870,160.059845 
	C159.549561,165.360229 158.727356,170.002106 157.344131,174.470306 
	C157.034134,175.471664 154.789276,176.367813 153.384567,176.450302 
	C147.569107,176.791763 141.726532,176.676636 135.912582,177.033585 
	C134.646332,177.111313 132.459213,178.363617 132.391388,179.210724 
	C131.880096,185.595108 127.691086,183.645203 123.617325,183.402267 
	C124.840385,177.261017 126.003822,171.419159 127.255875,165.165771 
M151.248871,166.339844 
	C145.949738,165.703186 140.650604,165.066528 135.407104,164.436554 
	C134.770020,167.463318 134.369492,169.366211 133.845230,171.857025 
	C138.368698,171.857025 142.342712,171.697708 146.297516,171.904922 
	C149.774475,172.087082 151.170151,170.498413 151.248871,166.339844 
z"/>
<path fill="#2D3476" opacity="1.000000" stroke="none" 
	d="
M41.756393,172.695770 
	C43.783390,169.619049 45.611469,166.846527 47.672249,163.721069 
	C46.818020,162.715012 45.959225,161.703583 44.629467,160.137466 
	C52.665459,160.137466 60.036854,160.137466 68.015579,160.137466 
	C69.861122,167.640839 71.743713,175.294830 73.626923,182.951340 
	C66.840836,184.625000 66.512550,184.491425 64.221733,179.110260 
	C58.859612,179.110260 53.379726,179.055557 47.902813,179.158737 
	C46.868584,179.178207 45.251747,179.537384 44.915306,180.230682 
	C42.815102,184.558670 39.161530,183.958786 34.745079,183.486923 
	C37.135426,179.807251 39.346455,176.403595 41.756393,172.695770 
M49.884209,173.007156 
	C54.213013,173.404724 58.541821,173.802277 64.460945,174.345901 
	C62.470280,170.336670 61.662590,167.394882 59.784557,165.532288 
	C58.957100,164.711639 55.537403,165.516068 54.047756,166.609100 
	C52.297859,167.893143 51.366383,170.292557 49.884209,173.007156 
z"/>
<path fill="#424883" opacity="1.000000" stroke="none" 
	d="
M77.985466,42.814640 
	C73.476532,45.335251 69.619087,44.278526 66.418831,40.341812 
	C67.087082,40.004238 67.562332,39.997856 68.372467,40.140629 
	C68.850243,40.371296 68.984985,40.483036 69.138664,40.524380 
	C69.253601,40.555298 69.503769,40.503113 69.505730,40.474892 
	C69.740135,37.094543 69.957001,33.712978 70.215149,29.704647 
	C72.032143,30.088408 73.644829,30.429014 74.865021,30.841953 
	C73.437080,31.681246 72.401627,32.448204 71.366173,33.215164 
	C72.537895,33.893353 73.709625,34.571537 75.353340,35.522907 
	C75.353340,33.307652 75.353340,32.083511 75.673637,30.649925 
	C76.409317,31.917747 77.036537,33.375397 77.175735,34.878242 
	C77.295715,36.173717 76.859840,37.520676 76.290955,38.757477 
	C74.470963,38.310234 73.029724,37.950382 71.588493,37.590530 
	C71.670204,39.220615 71.751907,40.850704 71.855530,42.918018 
	C73.850151,41.997276 75.004784,41.464283 76.459595,40.929348 
	C77.157143,40.892620 77.554512,40.857834 77.972382,41.154572 
	C77.990402,41.928940 77.987938,42.371788 77.985466,42.814640 
z"/>
<path fill="#4D528A" opacity="1.000000" stroke="none" 
	d="
M78.306290,42.711647 
	C77.987938,42.371788 77.990402,41.928940 78.136292,40.855957 
	C81.934761,36.368950 80.992531,32.671635 78.136879,28.932716 
	C78.594139,28.530527 78.806328,28.244856 79.018509,27.959185 
	C84.088951,32.842361 83.966331,37.432053 78.306290,42.711647 
z"/>
<path fill="#353C7B" opacity="1.000000" stroke="none" 
	d="
M68.037575,39.991478 
	C67.562332,39.997856 67.087082,40.004238 66.255600,40.023499 
	C62.955521,35.999481 63.487137,32.250923 67.282967,28.718586 
	C67.849464,28.830736 67.969856,28.960463 68.040176,29.494118 
	C68.005936,33.262524 68.021759,36.626999 68.037575,39.991478 
z"/>
<path fill="#353C7B" opacity="1.000000" stroke="none" 
	d="
M78.784119,27.664455 
	C78.806328,28.244856 78.594139,28.530527 77.769363,28.802223 
	C74.134598,28.888895 71.112427,28.989542 68.090248,29.090191 
	C67.969856,28.960463 67.849464,28.830736 67.566528,28.490738 
	C70.887024,25.135040 74.630852,25.181314 78.784119,27.664455 
z"/>
<path fill="#EFF0F5" opacity="1.000000" stroke="none" 
	d="
M181.708496,165.278885 
	C183.403244,167.911911 184.691559,170.513290 186.283157,173.727051 
	C180.765869,173.727051 176.544907,173.727051 171.601562,173.727051 
	C174.389755,169.776779 174.970917,164.401443 181.708496,165.278885 
z"/>
<path fill="#F4F4F8" opacity="1.000000" stroke="none" 
	d="
M151.213806,166.794769 
	C151.170151,170.498413 149.774475,172.087082 146.297516,171.904922 
	C142.342712,171.697708 138.368698,171.857025 133.845230,171.857025 
	C134.369492,169.366211 134.770020,167.463318 135.407104,164.436554 
	C140.650604,165.066528 145.949738,165.703186 151.213806,166.794769 
z"/>
<path fill="#EFF0F5" opacity="1.000000" stroke="none" 
	d="
M49.982086,172.607697 
	C51.366383,170.292557 52.297859,167.893143 54.047756,166.609100 
	C55.537403,165.516068 58.957100,164.711639 59.784557,165.532288 
	C61.662590,167.394882 62.470280,170.336670 64.460945,174.345901 
	C58.541821,173.802277 54.213013,173.404724 49.982086,172.607697 
z"/>
<path fill="#EAEAF1" opacity="1.000000" stroke="none" 
	d="
M68.040176,29.494118 
	C71.112427,28.989542 74.134598,28.888895 77.524292,28.918741 
	C80.992531,32.671635 81.934761,36.368950 78.115799,40.524437 
	C77.554512,40.857834 77.157143,40.892620 76.359184,40.710861 
	C75.958603,40.494316 76.004608,40.015606 76.267014,40.006077 
	C76.578354,39.613609 76.627304,39.230671 76.653557,38.857311 
	C76.630859,38.866890 76.669724,38.844872 76.669724,38.844872 
	C76.859840,37.520676 77.295715,36.173717 77.175735,34.878242 
	C77.036537,33.375397 76.409317,31.917747 75.623672,30.655256 
	C75.253410,30.870031 75.257507,30.769623 75.257507,30.769623 
	C73.644829,30.429014 72.032143,30.088408 70.215149,29.704647 
	C69.957001,33.712978 69.740135,37.094543 69.505730,40.474892 
	C69.503769,40.503113 69.253601,40.555298 69.138664,40.524380 
	C68.984985,40.483036 68.850243,40.371296 68.372467,40.140633 
	C68.021759,36.626999 68.005936,33.262524 68.040176,29.494118 
z"/>
<path fill="#4A5089" opacity="1.000000" stroke="none" 
	d="
M76.004608,40.015606 
	C76.004608,40.015606 75.958603,40.494316 76.059006,40.712807 
	C75.004784,41.464283 73.850151,41.997276 71.855530,42.918018 
	C71.751907,40.850704 71.670204,39.220615 71.588493,37.590530 
	C73.029724,37.950382 74.470963,38.310234 76.290955,38.757477 
	C76.669724,38.844872 76.630859,38.866890 76.419777,39.113853 
	C76.140663,39.579079 76.072639,39.797340 76.004608,40.015606 
z"/>
<path fill="#4A5089" opacity="1.000000" stroke="none" 
	d="
M75.303375,30.864700 
	C75.353340,32.083511 75.353340,33.307652 75.353340,35.522907 
	C73.709625,34.571537 72.537895,33.893353 71.366173,33.215164 
	C72.401627,32.448204 73.437080,31.681246 74.865021,30.841953 
	C75.257507,30.769623 75.253410,30.870031 75.303375,30.864700 
z"/>
<path fill="#424883" opacity="1.000000" stroke="none" 
	d="
M76.267014,40.006077 
	C76.072639,39.797340 76.140663,39.579079 76.442474,39.104275 
	C76.627304,39.230671 76.578354,39.613609 76.267014,40.006077 
z"/>
</svg>